<svg width="25" height="20" viewBox="0 0 25 20" fill="none" xmlns="http://www.w3.org/2000/svg">
<path fill-rule="evenodd" clip-rule="evenodd" d="M17.8071 11.4126C19.3639 12.5751 20.4549 14.1501 20.4549 16.2501V20.0001H25.0003V16.2501C25.0003 13.5251 20.9435 11.9126 17.8071 11.4126Z" fill="#65C8FF"/>
<path d="M9.09086 10C11.6013 10 13.6363 7.76142 13.6363 5C13.6363 2.23858 11.6013 0 9.09086 0C6.58048 0 4.54541 2.23858 4.54541 5C4.54541 7.76142 6.58048 10 9.09086 10Z" fill="#65C8FF"/>
<path fill-rule="evenodd" clip-rule="evenodd" d="M15.9093 10C18.4207 10 20.4548 7.7625 20.4548 5C20.4548 2.2375 18.4207 0 15.9093 0C15.3752 0 14.8752 0.125 14.3979 0.3C15.3411 1.5875 15.9093 3.225 15.9093 5C15.9093 6.775 15.3411 8.4125 14.3979 9.7C14.8752 9.875 15.3752 10 15.9093 10Z" fill="#65C8FF"/>
<path fill-rule="evenodd" clip-rule="evenodd" d="M9.09091 11.2495C6.05682 11.2495 0 12.9245 0 16.2495V19.9995H18.1818V16.2495C18.1818 12.9245 12.125 11.2495 9.09091 11.2495Z" fill="#65C8FF"/>
</svg>
