<svg width="20" height="30" viewBox="0 0 20 30" fill="none" xmlns="http://www.w3.org/2000/svg">
<path d="M9.77995 6C11.1303 6 12.2249 4.65685 12.2249 3C12.2249 1.34315 11.1303 0 9.77995 0C8.42962 0 7.33496 1.34315 7.33496 3C7.33496 4.65685 8.42962 6 9.77995 6Z" fill="#65C8FF"/>
<path d="M14.5355 9.165C14.0587 8.58 13.2396 7.5 11.6504 7.5C11.3936 7.5 9.91443 7.5 8.54523 7.5C5.18337 7.485 2.44499 4.125 2.44499 0H0C0 4.74 2.57946 8.76 6.11247 10.065V30H8.55746V21H11.0024V30H13.4474V12.075L18.2763 18L20 15.885L14.5355 9.165Z" fill="#65C8FF"/>
</svg>
