<svg width="25" height="20" viewBox="0 0 25 20" fill="none" xmlns="http://www.w3.org/2000/svg">
<path d="M17.5 17.3333V20H0V17.3333C0 17.3333 0 12 8.75 12C17.5 12 17.5 17.3333 17.5 17.3333ZM13.125 4.66672C13.125 3.74374 12.8684 2.8415 12.3877 2.07407C11.9069 1.30664 11.2237 0.708506 10.4242 0.355298C9.62481 0.00209021 8.74515 -0.090325 7.89648 0.0897387C7.04781 0.269802 6.26826 0.714258 5.65641 1.3669C5.04455 2.01954 4.62787 2.85106 4.45906 3.7563C4.29025 4.66154 4.37689 5.59985 4.70803 6.45257C5.03916 7.30529 5.59992 8.03412 6.31938 8.5469C7.03885 9.05968 7.88471 9.33337 8.75 9.33337C9.91032 9.33337 11.0231 8.84171 11.8436 7.96654C12.6641 7.09137 13.125 5.90439 13.125 4.66672ZM17.425 12C18.1934 12.6344 18.8222 13.4406 19.2671 14.362C19.712 15.2835 19.9621 16.2977 20 17.3333V20H25V17.3333C25 17.3333 25 12.4934 17.425 12ZM16.25 7.01051e-05C15.3896 -0.00504016 14.5481 0.269343 13.8375 0.786734C14.5968 1.91838 15.0051 3.27511 15.0051 4.66672C15.0051 6.05833 14.5968 7.41506 13.8375 8.54671C14.5481 9.0641 15.3896 9.33848 16.25 9.33337C17.4103 9.33337 18.5231 8.84171 19.3436 7.96654C20.1641 7.09137 20.625 5.90439 20.625 4.66672C20.625 3.42905 20.1641 2.24207 19.3436 1.3669C18.5231 0.491734 17.4103 7.01051e-05 16.25 7.01051e-05Z" fill="#65C8FF"/>
</svg>
