<?xml version="1.0" encoding="iso-8859-1"?>
<!-- Uploaded to: SVG Repo, www.svgrepo.com, Generator: SVG Repo Mixer Tools -->
<!DOCTYPE svg PUBLIC "-//W3C//DTD SVG 1.1//EN" "http://www.w3.org/Graphics/SVG/1.1/DTD/svg11.dtd">
<svg fill="#000000" height="800px" width="800px" version="1.1" id="Capa_1" xmlns="http://www.w3.org/2000/svg" xmlns:xlink="http://www.w3.org/1999/xlink" 
	 viewBox="0 0 297.223 297.223" xml:space="preserve">
<g>
	<path d="M286.862,253.39l-31.363-7.127V82.91c0-36.173-29.491-65.4-65.664-65.4h-82c-36.172,0-66.336,29.227-66.336,65.4v158.924
		L8.635,253.854c-6.922,2.503-10.317,10.143-7.814,17.062c1.962,5.424,7.17,8.797,12.623,8.797c1.505,0,3.081-0.258,4.578-0.799
		l42.728-15.447l55.102,15.63c1.191,0.34,2.433,0.412,3.67,0.412h60.136c2.311,0,4.58-0.5,6.588-1.643l25.234-14.305l69.449,15.791
		c7.178,1.627,14.331-2.854,15.961-10.032C298.518,262.145,294.037,255.019,286.862,253.39z M202.798,238.115l-26.666,15.395
		h-54.745l-52.888-15.44V82.91c0-21.478,17.859-39.4,39.336-39.4h82c21.478,0,38.664,17.923,38.664,39.4v157.302l-16.306-3.622
		C208.951,235.855,205.689,236.471,202.798,238.115z"/>
	<path d="M182.66,99.51h-21.161v-18.65c0-7.358-5.642-13.324-13.001-13.324s-12.999,5.966-12.999,13.324v18.65h-20.488
		c-7.359,0-13.325,6.141-13.325,13.5s5.966,13.5,13.325,13.5h20.488v39.425c0,7.359,5.64,13.325,12.999,13.325
		s13.001-5.966,13.001-13.325V126.51h21.161c7.359,0,13.325-6.141,13.325-13.5S190.019,99.51,182.66,99.51z"/>
</g>
</svg>